<svg width="692" height="301" viewBox="0 0 692 301" fill="none" xmlns="http://www.w3.org/2000/svg">
<path d="M0 40.4573L70.7947 46.5536V215.53L0 228.064V40.4573Z" fill="#0A273D"/>
<path d="M70.7949 46.5533L139.332 52.2316V207.792L70.7949 216.303V46.5533Z" fill="#123A59"/>
<path d="M207.87 57.9029L276.408 63.5748V183.266L207.87 195.104V57.9029Z" fill="#2275B4"/>
<path d="M139.332 52.2325L207.87 57.9031V193.402L139.332 200.829V52.2325Z" fill="#004E8A"/>
<path d="M276.407 63.5746L344.945 69.2451V167.328L276.407 178.546V63.5746Z" fill="#F2D202"/>
<path d="M344.944 69.2449L413.482 74.9155V151.17L344.944 166.167V69.2449Z" fill="#F2BE22"/>
<path d="M413.482 74.916L482.02 80.596V135.811L413.482 150.538V74.916Z" fill="#D92B04"/>
<path d="M482.02 80.5959L550.557 86.2666V119.978L482.02 134.445V80.5959Z" fill="#C1292E"/>
<path d="M550.558 86.2669L619.095 91.9474V106.05L550.558 122.531V86.2669Z" fill="#8F0008"/>
<path d="M619.095 91.9468L659.109 95.2961L619.095 103.497V91.9468Z" fill="#5C2528"/>
<path d="M0 23.8062L56.6359 29.5322L70.7949 46.5536L0 40.4572V23.8062Z" fill="#123A59"/>
<path d="M125.789 37.0372L196.071 44.6968L207.87 57.9271L139.332 52.2791L125.789 37.0372Z" fill="#2275B4"/>
<path d="M263.89 52.0461L336.223 59.9378L344.944 69.2996L276.407 63.5742L263.89 52.0461Z" fill="#FFF090"/>
<path d="M404.248 67.3655L475.966 75.1799L482.02 80.5958L413.482 74.9478L404.248 67.3655Z" fill="#FF0008"/>
<path d="M545.735 82.7625L616.222 90.4221L619.095 91.9695L550.558 86.3215L545.735 82.7625Z" fill="#C1292E"/>
<path d="M56.6357 29.532L125.789 37.0369L139.332 52.2788L70.7601 46.5626L56.6357 29.532Z" fill="#004E8A"/>
<path d="M196.07 44.6965L263.89 52.0467L276.407 63.5748L207.869 57.9268L196.07 44.6965Z" fill="#439EE3"/>
<path d="M336.121 59.8611L404.248 67.366L413.482 74.9482L344.842 69.2229L336.121 59.8611Z" fill="#F2D202"/>
<path d="M475.967 75.1805L545.736 82.7627L550.558 86.3218L482.02 80.5964L475.967 75.1805Z" fill="#D92B04"/>
<path d="M616.222 90.4218L659.109 95.2961L619.095 91.9692L616.222 90.4218Z" fill="#8F0008"/>
<path d="M659.109 95.2964L659.314 228.063H0L659.109 95.2964Z" fill="black"/>
<path d="M659.109 95.2964L458.96 228.063L444.39 228.063L659.109 95.2964Z" fill="#F4EDEA"/>
<path d="M659.109 95.2965L58.4046 228.064L43.8355 228.063L659.109 95.2965Z" fill="#F4EDEA"/>
<path d="M659.109 95.2964L481.676 227.986L467.107 227.986L659.109 95.2964Z" fill="#F4EDEA"/>
</svg>
