<svg width="39" height="66" viewBox="0 0 39 66" fill="none" xmlns="http://www.w3.org/2000/svg">
<path d="M0.921069 35.0561L34.0165 65.2157C34.5687 65.7191 35.3024 66 36.0653 66C36.8283 66 37.5619 65.7191 38.1141 65.2157L38.1497 65.1816C38.4184 64.9375 38.6323 64.6437 38.7785 64.3181C38.9246 63.9924 39 63.6417 39 63.2874C39 62.933 38.9246 62.5823 38.7785 62.2567C38.6323 61.931 38.4184 61.6372 38.1497 61.3932L6.98431 32.9943L38.1497 4.60684C38.4184 4.36276 38.6323 4.06897 38.7785 3.74333C38.9246 3.41769 39 3.06702 39 2.71264C39 2.35826 38.9246 2.00758 38.7785 1.68195C38.6323 1.35631 38.4184 1.06252 38.1497 0.818436L38.1141 0.784355C37.5619 0.280869 36.8283 0 36.0653 0C35.3024 0 34.5687 0.280869 34.0165 0.784355L0.921069 30.9439C0.630008 31.2092 0.398291 31.5282 0.239965 31.8816C0.0816393 32.235 0 32.6155 0 33C0 33.3845 0.0816393 33.765 0.239965 34.1184C0.398291 34.4719 0.630008 34.7909 0.921069 35.0561Z" fill="#A8A8A8"/>
</svg>
