<svg width="39" height="66" viewBox="0 0 39 66" fill="none" xmlns="http://www.w3.org/2000/svg">
<path d="M38.0789 35.0561L4.98347 65.2157C4.43126 65.7191 3.6976 66 2.93468 66C2.17175 66 1.4381 65.7191 0.885885 65.2157L0.850251 65.1816C0.58162 64.9375 0.367717 64.6437 0.221548 64.3181C0.075378 63.9924 -8.81855e-08 63.6417 -8.81855e-08 63.2874C-8.81855e-08 62.933 0.075378 62.5823 0.221548 62.2567C0.367717 61.931 0.58162 61.6372 0.850251 61.3932L32.0157 32.9943L0.850251 4.60684C0.58162 4.36276 0.367717 4.06897 0.221548 3.74333C0.075378 3.41769 -8.81855e-08 3.06702 -8.81855e-08 2.71264C-8.81855e-08 2.35826 0.075378 2.00758 0.221548 1.68195C0.367717 1.35631 0.58162 1.06251 0.850251 0.818435L0.885885 0.784354C1.4381 0.280872 2.17175 1.20935e-06 2.93468 1.20935e-06C3.6976 1.20935e-06 4.43126 0.280872 4.98347 0.784354L38.0789 30.9439C38.37 31.2092 38.6017 31.5282 38.76 31.8816C38.9184 32.235 39 32.6155 39 33C39 33.3845 38.9184 33.765 38.76 34.1184C38.6017 34.4719 38.37 34.7909 38.0789 35.0561Z" fill="#A8A8A8"/>
</svg>
